<svg xmlns="http://www.w3.org/2000/svg" width="4676" height="4676" viewBox="0 0 4676 4676" version="1.1"><path d="M 2298.500 981.045 C 2289.700 981.545, 2279.763 982.414, 2276.418 982.977 C 2273.073 983.540, 2266.548 984.020, 2261.918 984.044 C 2256.912 984.070, 2251.879 984.704, 2249.500 985.608 C 2246.981 986.565, 2239.577 987.421, 2229.500 987.920 C 2220.700 988.357, 2212.179 989.248, 2210.565 989.902 C 2208.951 990.556, 2204.001 991.358, 2199.565 991.685 C 2195.129 992.011, 2190.339 992.863, 2188.920 993.577 C 2187.501 994.291, 2182.360 995.170, 2177.495 995.529 C 2172.630 995.889, 2167.716 996.764, 2166.575 997.473 C 2165.434 998.182, 2161.676 999.035, 2158.225 999.368 C 2154.774 999.702, 2150.724 1000.594, 2149.225 1001.351 C 2147.726 1002.109, 2143.800 1002.971, 2140.500 1003.267 C 2137.200 1003.564, 2133.150 1004.522, 2131.500 1005.397 C 2129.850 1006.272, 2126.688 1006.990, 2124.473 1006.994 C 2122.257 1006.997, 2119.433 1007.709, 2118.196 1008.575 C 2116.960 1009.441, 2113.372 1010.394, 2110.224 1010.692 C 2107.076 1010.991, 2103.563 1011.818, 2102.417 1012.531 C 2101.271 1013.244, 2098.121 1014.157, 2095.417 1014.560 C 2092.713 1014.964, 2089.600 1015.849, 2088.500 1016.527 C 2087.400 1017.206, 2084.455 1018.018, 2081.955 1018.333 C 2079.456 1018.648, 2076.081 1019.599, 2074.455 1020.447 C 2072.830 1021.294, 2070.556 1021.990, 2069.403 1021.994 C 2068.250 1021.997, 2066.268 1022.900, 2065 1024 C 2063.506 1025.296, 2061.251 1026.002, 2058.597 1026.007 C 2056.192 1026.010, 2053.261 1026.834, 2051.500 1028 C 2049.850 1029.093, 2047.669 1029.990, 2046.654 1029.993 C 2045.639 1029.997, 2043.614 1030.639, 2042.154 1031.420 C 2039.444 1032.871, 2032.001 1035.465, 2026.352 1036.928 C 2024.621 1037.376, 2022.159 1038.476, 2020.880 1039.372 C 2019.601 1040.267, 2017.487 1041, 2016.182 1041 C 2014.877 1041, 2012.614 1041.645, 2011.154 1042.432 C 2005.705 1045.373, 1997.070 1049, 1995.519 1049 C 1994.636 1049, 1990.997 1050.575, 1987.432 1052.500 C 1983.867 1054.425, 1980.130 1056, 1979.128 1056 C 1978.126 1056, 1976.268 1056.900, 1975 1058 C 1973.732 1059.100, 1972.134 1060, 1971.450 1060 C 1970.765 1060, 1967.122 1061.530, 1963.353 1063.400 C 1945.995 1072.012, 1939.585 1075, 1938.472 1075 C 1937.811 1075, 1936.197 1075.831, 1934.885 1076.848 C 1933.573 1077.864, 1931.263 1078.997, 1929.750 1079.367 C 1928.237 1079.736, 1927 1080.444, 1927 1080.940 C 1927 1081.435, 1925.655 1082.136, 1924.011 1082.497 C 1922.368 1082.858, 1920.762 1083.576, 1920.443 1084.092 C 1920.124 1084.608, 1918.432 1085.704, 1916.682 1086.527 C 1914.932 1087.350, 1910.350 1089.801, 1906.500 1091.975 C 1902.650 1094.149, 1896.218 1097.631, 1892.207 1099.714 C 1879.974 1106.065, 1879.557 1106.300, 1878.252 1107.605 C 1877.557 1108.300, 1876.091 1109.154, 1874.994 1109.502 C 1873.897 1109.850, 1873 1110.524, 1873 1111 C 1873 1111.476, 1872.013 1112.179, 1870.806 1112.561 C 1868.653 1113.245, 1860.439 1118.628, 1856.500 1121.938 C 1855.400 1122.862, 1853.375 1124.172, 1852 1124.849 C 1848.926 1126.362, 1846.761 1127.687, 1841.100 1131.520 C 1838.681 1133.159, 1836.003 1134.950, 1835.150 1135.500 C 1834.297 1136.050, 1831.444 1137.963, 1828.810 1139.750 C 1826.176 1141.537, 1823.761 1143, 1823.443 1143 C 1823.125 1143, 1820.462 1144.912, 1817.526 1147.250 C 1808.116 1154.740, 1805.789 1156.474, 1803.433 1157.749 C 1802.164 1158.436, 1799.635 1160.371, 1797.813 1162.048 C 1795.005 1164.634, 1788.185 1169.643, 1782.222 1173.500 C 1781.371 1174.050, 1779.939 1175.175, 1779.039 1176 C 1778.140 1176.825, 1774.340 1179.975, 1770.597 1183 C 1766.853 1186.025, 1759.675 1191.978, 1754.645 1196.229 C 1749.615 1200.480, 1744.812 1204.530, 1743.971 1205.229 C 1732.660 1214.632, 1683.475 1262.745, 1674.104 1273.575 C 1672.236 1275.734, 1666.487 1282.073, 1661.328 1287.662 C 1656.170 1293.252, 1650.048 1300.254, 1647.725 1303.222 C 1645.401 1306.190, 1642.953 1309.267, 1642.285 1310.060 C 1637.671 1315.529, 1634.397 1319.718, 1627.873 1328.500 C 1620.601 1338.290, 1619.204 1340.077, 1613.881 1346.393 C 1609.433 1351.672, 1594.763 1372.524, 1589.500 1381.050 C 1586.750 1385.505, 1580.179 1395.754, 1574.898 1403.825 C 1564.834 1419.205, 1556.621 1432.866, 1550.565 1444.299 C 1548.584 1448.038, 1545.959 1452.763, 1544.732 1454.799 C 1541.567 1460.047, 1520.680 1501.931, 1516.455 1511.500 C 1514.512 1515.900, 1512.265 1520.774, 1511.461 1522.331 C 1510.658 1523.888, 1510 1525.563, 1510 1526.054 C 1510 1526.544, 1508.897 1529.320, 1507.550 1532.223 C 1505.532 1536.569, 1496.575 1559.162, 1492.970 1569 C 1492.466 1570.375, 1491.514 1572.850, 1490.855 1574.500 C 1490.196 1576.150, 1489.107 1579.300, 1488.435 1581.500 C 1487.763 1583.700, 1485.206 1591.350, 1482.753 1598.500 C 1476.865 1615.660, 1474.053 1624.420, 1472.484 1630.500 C 1471.040 1636.093, 1467.254 1649.897, 1464.255 1660.500 C 1463.166 1664.350, 1461.492 1671.100, 1460.534 1675.500 C 1459.577 1679.900, 1458.422 1684.850, 1457.968 1686.500 C 1456.171 1693.035, 1453.975 1704.665, 1453.987 1707.583 C 1453.994 1709.279, 1453.662 1711.002, 1453.250 1711.412 C 1452.463 1712.193, 1450.499 1722.245, 1449.107 1732.614 C 1448.656 1735.976, 1447.885 1739.351, 1447.393 1740.114 C 1446.510 1741.484, 1445.912 1746.451, 1444.144 1767.095 C 1443.644 1772.923, 1442.733 1778.631, 1442.118 1779.780 C 1441.503 1780.928, 1441 1785.919, 1441 1790.869 C 1441 1795.820, 1440.508 1801.137, 1439.906 1802.685 C 1437.799 1808.106, 1436.715 1832.869, 1436.697 1876 C 1436.678 1918.067, 1437.484 1934.415, 1439.864 1940.315 C 1440.489 1941.863, 1441 1946.258, 1441 1950.080 C 1441 1953.903, 1441.650 1959.611, 1442.443 1962.765 C 1443.237 1965.919, 1444.388 1972.550, 1445 1977.500 C 1446.085 1986.267, 1448.201 1997.928, 1449.990 2005 C 1450.477 2006.925, 1451.594 2011.875, 1452.472 2016 C 1456.791 2036.279, 1464.442 2068.208, 1466.491 2074.500 C 1467.207 2076.700, 1468.348 2080.525, 1469.026 2083 C 1469.704 2085.475, 1470.838 2089.300, 1471.546 2091.500 C 1472.253 2093.700, 1474.012 2100, 1475.453 2105.500 C 1480.923 2126.366, 1508.809 2210.062, 1515.435 2225.500 C 1516.379 2227.700, 1517.837 2231.525, 1518.675 2234 C 1519.513 2236.475, 1520.768 2239.850, 1521.464 2241.500 C 1522.966 2245.064, 1524.093 2247.935, 1531.469 2267 C 1537.554 2282.728, 1537.921 2283.649, 1540.361 2289.284 C 1541.263 2291.365, 1542 2293.490, 1542 2294.007 C 1542 2294.523, 1543.073 2297.320, 1544.384 2300.223 C 1545.696 2303.125, 1547.339 2307.075, 1548.036 2309 C 1548.732 2310.925, 1550.584 2315.344, 1552.151 2318.820 C 1553.718 2322.296, 1555 2325.501, 1555 2325.943 C 1555 2326.697, 1556.843 2331.197, 1560.962 2340.500 C 1561.936 2342.700, 1563.752 2346.975, 1564.997 2350 C 1566.243 2353.025, 1568.491 2358.200, 1569.994 2361.500 C 1571.497 2364.800, 1573.064 2368.625, 1573.476 2370 C 1573.889 2371.375, 1575.244 2374.525, 1576.488 2377 C 1577.732 2379.475, 1580.227 2384.875, 1582.032 2389 C 1585.432 2396.770, 1588.848 2404.336, 1594 2415.503 C 1595.650 2419.079, 1597 2422.258, 1597 2422.567 C 1597 2422.876, 1598.168 2425.687, 1599.595 2428.814 C 1601.022 2431.941, 1603.315 2436.975, 1604.691 2440 C 1606.067 2443.025, 1609.112 2449.550, 1611.458 2454.500 C 1613.804 2459.450, 1616.637 2465.525, 1617.752 2468 C 1618.868 2470.475, 1624.330 2481.757, 1629.890 2493.070 C 1635.451 2504.384, 1640.001 2514.059, 1640.002 2514.570 C 1640.004 2515.349, 1683.328 2602.413, 1686.743 2608.500 C 1687.360 2609.600, 1690.299 2615.450, 1693.274 2621.500 C 1696.249 2627.550, 1702.419 2639.700, 1706.985 2648.500 C 1715.679 2665.255, 1717.382 2668.616, 1720.918 2676 C 1722.103 2678.475, 1724.221 2682.525, 1725.623 2685 C 1727.026 2687.475, 1730.451 2693.775, 1733.235 2699 C 1736.018 2704.225, 1740.098 2711.875, 1742.301 2716 C 1744.503 2720.125, 1748.647 2728, 1751.508 2733.500 C 1754.370 2739, 1762.236 2753.625, 1768.989 2766 C 1775.742 2778.375, 1783.834 2793.504, 1786.973 2799.621 C 1790.112 2805.737, 1793.582 2812.037, 1794.684 2813.621 C 1795.786 2815.204, 1798.265 2819.425, 1800.192 2823 C 1807.853 2837.210, 1811.422 2843.612, 1813.016 2846 C 1813.934 2847.375, 1817.297 2853.450, 1820.490 2859.500 C 1830.062 2877.636, 1833.213 2883.364, 1835.155 2886.156 C 1837.525 2889.563, 1843.024 2899.205, 1848.755 2910 C 1851.237 2914.675, 1854.698 2920.750, 1856.448 2923.500 C 1858.197 2926.250, 1860.303 2929.850, 1861.128 2931.500 C 1861.954 2933.150, 1864.148 2937.200, 1866.005 2940.500 C 1867.862 2943.800, 1870.466 2948.750, 1871.791 2951.500 C 1873.117 2954.250, 1875.281 2957.932, 1876.601 2959.683 C 1877.920 2961.434, 1879 2963.085, 1879 2963.352 C 1879 2963.619, 1882.753 2970.062, 1887.339 2977.669 C 1898.686 2996.488, 1908.933 3014.006, 1912.267 3020.287 C 1913.789 3023.154, 1916.529 3027.975, 1918.356 3031 C 1920.183 3034.025, 1923.386 3039.650, 1925.475 3043.500 C 1927.563 3047.350, 1930.257 3051.850, 1931.461 3053.500 C 1932.665 3055.150, 1934.737 3058.525, 1936.066 3061 C 1937.394 3063.475, 1939.498 3066.892, 1940.741 3068.594 C 1941.983 3070.296, 1943 3071.976, 1943 3072.327 C 1943 3072.849, 1947.828 3081.273, 1951.984 3088 C 1952.493 3088.825, 1954.344 3091.975, 1956.097 3095 C 1957.849 3098.025, 1961.019 3103.063, 1963.142 3106.195 C 1965.264 3109.327, 1967 3112.132, 1967 3112.428 C 1967 3112.723, 1968.786 3115.883, 1970.969 3119.449 C 1973.151 3123.015, 1976.326 3128.683, 1978.023 3132.046 C 1979.720 3135.408, 1986.259 3146.206, 1992.554 3156.042 C 1998.850 3165.878, 2004 3174.238, 2004 3174.619 C 2004 3175, 2005.125 3176.786, 2006.500 3178.589 C 2007.875 3180.392, 2009 3182.120, 2009 3182.431 C 2009 3182.935, 2012.288 3188.310, 2031.884 3219.838 C 2034.845 3224.602, 2038.895 3231.440, 2040.884 3235.033 C 2045.611 3243.573, 2049.028 3249.141, 2063.733 3272.264 C 2079.606 3297.226, 2078.875 3296.053, 2085.067 3306.500 C 2088.001 3311.450, 2091.886 3317.579, 2093.701 3320.119 C 2095.515 3322.660, 2097 3325.028, 2097 3325.381 C 2097 3325.974, 2098.791 3328.837, 2110.525 3347 C 2112.834 3350.575, 2116.751 3356.875, 2119.228 3361 C 2127.141 3374.176, 2145.339 3403.482, 2145.930 3404 C 2146.243 3404.275, 2146.950 3405.283, 2147.500 3406.241 C 2148.050 3407.198, 2152.775 3414.542, 2158 3422.560 C 2163.225 3430.579, 2168.400 3438.640, 2169.500 3440.473 C 2172.839 3446.039, 2183.539 3462.535, 2203.500 3492.890 C 2230.636 3534.155, 2230.579 3534.067, 2233.547 3539.341 C 2234.426 3540.904, 2239.388 3548.687, 2244.573 3556.638 C 2249.758 3564.588, 2254 3571.302, 2254 3571.559 C 2254 3572.035, 2274.645 3602.698, 2285.269 3618 C 2288.514 3622.675, 2296.002 3633.700, 2301.908 3642.500 C 2327.246 3680.252, 2331.462 3686.142, 2334.500 3688.036 C 2336.395 3689.218, 2336.414 3689.184, 2334.864 3687.392 C 2333.219 3685.488, 2265.596 3584.029, 2243.626 3550.500 C 2223.524 3519.822, 2181.225 3454.431, 2167.119 3432.229 C 2164.579 3428.229, 2160.250 3421.478, 2157.500 3417.225 C 2154.750 3412.973, 2149.381 3404.545, 2145.568 3398.497 C 2141.756 3392.449, 2132.808 3378.275, 2125.684 3367 C 2118.560 3355.725, 2103.062 3330.975, 2091.244 3312 C 2079.426 3293.025, 2068.071 3274.800, 2066.009 3271.500 C 2030.456 3214.584, 1966.453 3108.417, 1925.544 3038.500 C 1911.385 3014.300, 1898.877 2992.925, 1897.750 2991 C 1894.005 2984.607, 1848.789 2905.628, 1844.506 2898 C 1771.790 2768.496, 1722.329 2675.610, 1669.583 2569.500 C 1546.921 2322.736, 1471.906 2124.143, 1447.593 1981.809 C 1440.209 1938.585, 1438.502 1918.695, 1438.598 1877 C 1438.702 1831.509, 1441.109 1798.075, 1447.443 1754.114 C 1468.769 1606.098, 1526.759 1465.850, 1615.995 1346.474 C 1747.212 1170.939, 1934.977 1049.982, 2147.603 1004.018 C 2206.940 991.191, 2261.909 985.150, 2327 984.301 C 2370.115 983.740, 2395.181 984.908, 2438 989.475 C 2594.822 1006.202, 2748.755 1067.019, 2875.859 1162.468 C 2883.207 1167.986, 2890.433 1173.400, 2891.918 1174.500 C 2920.683 1195.805, 2975.183 1246.718, 3007.533 1282.507 C 3081.661 1364.512, 3143.202 1466.409, 3181.847 1571.129 C 3216.589 1665.273, 3234.534 1760.048, 3237.584 1865.500 C 3239.222 1922.107, 3230.593 1985.743, 3211.142 2060.500 C 3190.307 2140.576, 3156.570 2236.573, 3114.495 2335.500 C 3111.922 2341.550, 3108.695 2349.200, 3107.325 2352.500 C 3104.724 2358.762, 3104.160 2360.047, 3088.662 2395 C 3072.741 2430.907, 3069.004 2439.081, 3050.940 2477.500 C 3033.870 2513.806, 2978.412 2625.592, 2957.424 2666 C 2931.570 2715.775, 2894.678 2784.326, 2865.666 2836.500 C 2834.457 2892.626, 2824.104 2911.041, 2807.480 2940 C 2788.250 2973.498, 2781.821 2984.650, 2772.027 3001.500 C 2766.911 3010.300, 2760.260 3021.775, 2757.245 3027 C 2754.231 3032.225, 2749.871 3039.650, 2747.557 3043.500 C 2745.243 3047.350, 2741.761 3053.200, 2739.820 3056.500 C 2731.589 3070.495, 2703.213 3118.293, 2697.670 3127.500 C 2675.824 3163.790, 2651.628 3203.656, 2633.334 3233.500 C 2609.733 3272.004, 2605.462 3278.926, 2602.480 3283.500 C 2600.688 3286.250, 2595.485 3294.575, 2590.919 3302 C 2582.973 3314.921, 2578.535 3322.005, 2553.022 3362.500 C 2535.197 3390.791, 2509.363 3431.445, 2501.550 3443.500 C 2497.628 3449.550, 2487.780 3464.850, 2479.664 3477.500 C 2451.226 3521.829, 2429.411 3555.060, 2385.142 3621.486 C 2360.589 3658.329, 2340.359 3688.929, 2340.187 3689.486 C 2339.010 3693.300, 2363.883 3658.306, 2380.692 3632.500 C 2384.274 3627, 2388.509 3620.626, 2390.102 3618.337 C 2391.696 3616.047, 2393 3613.832, 2393 3613.415 C 2393 3612.998, 2393.644 3611.946, 2394.431 3611.077 C 2395.218 3610.207, 2396.455 3608.372, 2397.181 3606.998 C 2397.906 3605.624, 2406.148 3593.025, 2415.496 3579 C 2424.844 3564.975, 2432.944 3552.782, 2433.496 3551.903 C 2437.565 3545.432, 2441.513 3539.445, 2445.960 3533 C 2451.593 3524.837, 2463.147 3506.862, 2469.500 3496.380 C 2473.273 3490.154, 2487.847 3467.752, 2512.250 3430.667 C 2518.163 3421.682, 2523 3414.026, 2523 3413.655 C 2523 3412.775, 2533.673 3395.416, 2536.680 3391.406 C 2537.956 3389.704, 2539 3388.029, 2539 3387.685 C 2539 3387.340, 2540.305 3385.133, 2541.900 3382.779 C 2544.546 3378.875, 2548.669 3372.499, 2563.419 3349.500 C 2566.240 3345.100, 2569.178 3340.375, 2569.947 3339 C 2572.591 3334.269, 2587.149 3310.671, 2589.325 3307.588 C 2590.524 3305.889, 2592.055 3303.600, 2592.726 3302.500 C 2593.398 3301.400, 2597.222 3295.370, 2601.224 3289.100 C 2605.226 3282.830, 2609.186 3276.530, 2610.025 3275.100 C 2610.863 3273.670, 2612.438 3271.175, 2613.525 3269.556 C 2614.611 3267.937, 2616.625 3264.484, 2618 3261.882 C 2620.735 3256.706, 2630.791 3240.259, 2637.493 3230 C 2639.828 3226.425, 2643.981 3219.675, 2646.720 3215 C 2652.116 3205.793, 2655.402 3200.372, 2671.171 3174.658 C 2676.852 3165.395, 2682.625 3155.866, 2684 3153.482 C 2685.375 3151.098, 2688.525 3145.652, 2691 3141.380 C 2693.475 3137.108, 2696.247 3132.320, 2697.160 3130.741 C 2698.072 3129.161, 2699.939 3126.211, 2701.307 3124.184 C 2706.053 3117.156, 2713.779 3104.369, 2716.380 3099.236 C 2717.818 3096.399, 2721.471 3090.278, 2724.497 3085.635 C 2727.524 3080.992, 2730 3076.906, 2730 3076.554 C 2730 3076.203, 2733.057 3071.097, 2736.794 3065.208 C 2740.530 3059.318, 2744.426 3052.700, 2745.452 3050.500 C 2746.477 3048.300, 2749.495 3043.017, 2752.158 3038.761 C 2754.821 3034.504, 2757 3030.768, 2757 3030.457 C 2757 3030.146, 2759.875 3025.304, 2763.388 3019.696 C 2766.901 3014.088, 2770.876 3007.250, 2772.220 3004.500 C 2773.564 3001.750, 2776.153 2997.025, 2777.973 2994 C 2779.792 2990.975, 2782.405 2986.475, 2783.777 2984 C 2785.150 2981.525, 2787.587 2977.528, 2789.192 2975.118 C 2790.797 2972.708, 2793.934 2967.083, 2796.163 2962.618 C 2798.392 2958.153, 2801.293 2953.068, 2802.608 2951.317 C 2803.924 2949.566, 2805 2947.848, 2805 2947.500 C 2805 2947.152, 2806.038 2945.434, 2807.307 2943.683 C 2808.575 2941.932, 2810.484 2938.700, 2811.548 2936.500 C 2812.612 2934.300, 2813.989 2931.825, 2814.609 2931 C 2815.228 2930.175, 2817.532 2926.125, 2819.730 2922 C 2821.927 2917.875, 2824.574 2913.071, 2825.612 2911.325 C 2831.365 2901.649, 2838.999 2888.245, 2844.022 2879 C 2854.185 2860.294, 2856.277 2856.542, 2857.965 2854 C 2858.877 2852.625, 2861.224 2848.350, 2863.179 2844.500 C 2867.354 2836.280, 2869.945 2831.632, 2873.433 2826.105 C 2874.831 2823.892, 2878.513 2817.225, 2881.616 2811.290 C 2890.888 2793.557, 2894.132 2787.641, 2896.116 2784.846 C 2897.152 2783.386, 2898 2781.978, 2898 2781.717 C 2898 2781.457, 2899.945 2777.701, 2902.322 2773.372 C 2907.412 2764.103, 2915.924 2748.056, 2924.268 2732 C 2927.555 2725.675, 2930.597 2720.050, 2931.028 2719.500 C 2931.459 2718.950, 2935.161 2711.975, 2939.256 2704 C 2943.350 2696.025, 2948.503 2686.125, 2950.707 2682 C 2952.911 2677.875, 2959.010 2666.175, 2964.260 2656 C 2969.510 2645.825, 2976.265 2632.775, 2979.272 2627 C 2985.668 2614.716, 2991.879 2602.363, 3006.170 2573.500 C 3011.889 2561.950, 3017.735 2550.250, 3019.160 2547.500 C 3020.585 2544.750, 3024.226 2537.325, 3027.253 2531 C 3030.279 2524.675, 3035.998 2512.750, 3039.961 2504.500 C 3043.925 2496.250, 3047.557 2488.600, 3048.032 2487.500 C 3050.194 2482.500, 3060.494 2460.860, 3063.502 2455 C 3065.337 2451.425, 3067.808 2446.025, 3068.992 2443 C 3070.176 2439.975, 3072.416 2434.800, 3073.969 2431.500 C 3075.522 2428.200, 3078.808 2421.225, 3081.272 2416 C 3083.736 2410.775, 3086.083 2405.375, 3086.490 2404 C 3086.896 2402.625, 3089.150 2397.450, 3091.499 2392.500 C 3093.848 2387.550, 3097.349 2379.675, 3099.280 2375 C 3101.211 2370.325, 3103.947 2363.976, 3105.360 2360.891 C 3110.973 2348.637, 3119.336 2329.153, 3121.624 2323 C 3122.953 2319.425, 3125.156 2314.125, 3126.520 2311.223 C 3127.884 2308.320, 3129 2305.502, 3129 2304.959 C 3129 2304.417, 3129.428 2303.191, 3129.952 2302.236 C 3131.258 2299.852, 3133.423 2294.468, 3135.476 2288.500 C 3136.422 2285.750, 3138.248 2281.250, 3139.534 2278.500 C 3142.480 2272.198, 3150 2252.571, 3150 2251.181 C 3150 2250.608, 3151.350 2247.223, 3153 2243.658 C 3154.650 2240.093, 3156 2236.843, 3156 2236.436 C 3156 2235.736, 3162.739 2217.426, 3169.042 2201 C 3170.625 2196.875, 3173.090 2189.900, 3174.519 2185.500 C 3175.949 2181.100, 3177.532 2176.600, 3178.037 2175.500 C 3178.958 2173.492, 3180.202 2169.643, 3183.530 2158.500 C 3184.516 2155.200, 3185.667 2151.825, 3186.087 2151 C 3186.508 2150.175, 3188.055 2145.450, 3189.523 2140.500 C 3190.992 2135.550, 3193.443 2127.900, 3194.970 2123.500 C 3197.597 2115.931, 3201.237 2104.112, 3202.979 2097.500 C 3207.581 2080.034, 3209.191 2074.199, 3209.879 2072.500 C 3211.857 2067.610, 3214 2060.037, 3214 2057.937 C 3214 2056.675, 3214.409 2054.260, 3214.908 2052.571 C 3218.254 2041.252, 3220.663 2031.371, 3221.996 2023.500 C 3222.461 2020.750, 3223.586 2015.575, 3224.494 2012 C 3225.402 2008.425, 3226.508 2002.957, 3226.952 1999.850 C 3227.395 1996.742, 3228.137 1993.592, 3228.599 1992.850 C 3229.704 1991.077, 3230.940 1982.765, 3231.850 1971 C 3232.254 1965.775, 3233.128 1960.517, 3233.793 1959.316 C 3234.457 1958.114, 3235 1955.272, 3235 1953 C 3235 1950.728, 3235.559 1947.886, 3236.242 1946.684 C 3237.505 1944.464, 3239.221 1907.004, 3239.251 1881 C 3239.289 1847.801, 3237.773 1804.328, 3236.411 1799.568 C 3235.635 1796.856, 3235 1791.314, 3235 1787.253 C 3235 1783.191, 3234.512 1778.956, 3233.915 1777.841 C 3233.318 1776.726, 3232.434 1770.794, 3231.950 1764.657 C 3230.793 1750.002, 3229.664 1741.833, 3228.548 1740.056 C 3228.050 1739.261, 3227.319 1735.436, 3226.924 1731.556 C 3226.530 1727.675, 3225.466 1720.900, 3224.560 1716.500 C 3223.655 1712.100, 3222.551 1705.800, 3222.109 1702.500 C 3221.666 1699.200, 3220.785 1695.233, 3220.152 1693.685 C 3219.518 1692.137, 3219 1689.639, 3219 1688.135 C 3219 1686.631, 3218.573 1684.972, 3218.052 1684.450 C 3217.219 1683.615, 3216.050 1678.495, 3214.410 1668.500 C 3214.139 1666.850, 3213.282 1663.250, 3212.507 1660.500 C 3211.731 1657.750, 3210.354 1652.800, 3209.448 1649.500 C 3208.542 1646.200, 3207.420 1642.150, 3206.955 1640.500 C 3206.490 1638.850, 3205.398 1634.800, 3204.529 1631.500 C 3203.659 1628.200, 3202.470 1624.150, 3201.886 1622.500 C 3201.302 1620.850, 3200.414 1618.037, 3199.912 1616.250 C 3199.410 1614.463, 3198.586 1611.537, 3198.081 1609.750 C 3197.575 1607.963, 3196.268 1604.025, 3195.176 1601 C 3194.084 1597.975, 3192.402 1592.800, 3191.438 1589.500 C 3190.475 1586.200, 3189.307 1583.072, 3188.843 1582.550 C 3188.379 1582.027, 3188 1580.971, 3188 1580.201 C 3188 1579.432, 3187.371 1577.384, 3186.601 1575.651 C 3185.832 1573.918, 3184.422 1570.025, 3183.467 1567 C 3182.513 1563.975, 3180.690 1559.250, 3179.416 1556.500 C 3178.142 1553.750, 3175.706 1547.900, 3174.003 1543.500 C 3172.301 1539.100, 3169.803 1533.125, 3168.454 1530.223 C 3167.104 1527.320, 3166 1524.577, 3166 1524.126 C 3166 1523.676, 3165.371 1522.001, 3164.603 1520.404 C 3163.834 1518.807, 3160.404 1511.650, 3156.980 1504.500 C 3142.905 1475.110, 3137.413 1464.351, 3127.191 1446.146 C 3124.611 1441.551, 3120.700 1434.570, 3118.500 1430.633 C 3116.300 1426.696, 3113.150 1421.067, 3111.500 1418.125 C 3109.850 1415.182, 3107.037 1410.586, 3105.250 1407.912 C 3103.463 1405.237, 3102 1402.790, 3102 1402.475 C 3102 1401.937, 3094.083 1390.083, 3093 1389 C 3092.725 1388.725, 3088.704 1382.875, 3084.063 1376 C 3073.060 1359.697, 3049.734 1327.616, 3045.119 1322.441 C 3043.129 1320.208, 3039.025 1315.303, 3036 1311.542 C 3029.776 1303.802, 3017.476 1289.476, 3014.486 1286.486 C 3013.394 1285.393, 3008.803 1280.224, 3004.285 1274.999 C 2996.060 1265.488, 2963.626 1232.960, 2948.400 1218.952 C 2937.277 1208.718, 2926.036 1198.771, 2918.174 1192.204 C 2915.736 1190.167, 2911.886 1186.885, 2909.620 1184.910 C 2902.710 1178.890, 2884.668 1165.183, 2880.121 1162.500 C 2878.048 1161.276, 2875.407 1159.080, 2873.207 1156.750 C 2872.299 1155.787, 2871.072 1155, 2870.481 1155 C 2869.403 1155, 2868.878 1154.643, 2861.500 1148.883 C 2857.840 1146.027, 2852.143 1142.030, 2848.107 1139.488 C 2842.590 1136.013, 2840.407 1134.399, 2839.700 1133.274 C 2839.260 1132.573, 2838.318 1132, 2837.605 1132 C 2836.893 1132, 2835.495 1131.100, 2834.500 1130 C 2833.505 1128.900, 2832.071 1128, 2831.314 1128 C 2830.557 1128, 2829.685 1127.342, 2829.376 1126.538 C 2829.068 1125.734, 2827.965 1124.806, 2826.925 1124.476 C 2825.886 1124.146, 2821.337 1121.429, 2816.817 1118.438 C 2812.297 1115.447, 2808.084 1113, 2807.454 1113 C 2806.825 1113, 2805.495 1112.100, 2804.500 1111 C 2803.505 1109.900, 2802.197 1108.997, 2801.595 1108.993 C 2800.993 1108.989, 2796.675 1106.517, 2792 1103.500 C 2787.325 1100.483, 2782.970 1098.011, 2782.321 1098.007 C 2781.673 1098.003, 2780.548 1097.413, 2779.821 1096.695 C 2779.095 1095.977, 2775.575 1093.907, 2772 1092.095 C 2768.425 1090.283, 2763.700 1087.731, 2761.500 1086.424 C 2759.300 1085.117, 2756.375 1083.587, 2755 1083.024 C 2753.625 1082.462, 2751.825 1081.579, 2751 1081.064 C 2748.596 1079.561, 2735.878 1073.467, 2715.500 1064.055 C 2710.550 1061.768, 2704.700 1059.049, 2702.500 1058.011 C 2700.300 1056.974, 2696.250 1055.169, 2693.500 1054.001 C 2690.750 1052.832, 2687.150 1051.230, 2685.500 1050.442 C 2683.850 1049.653, 2681.048 1048.726, 2679.272 1048.383 C 2677.497 1048.040, 2675.530 1047.138, 2674.900 1046.379 C 2674.270 1045.621, 2672.909 1045, 2671.874 1045 C 2670.839 1045, 2668.314 1044.100, 2666.261 1043 C 2664.209 1041.900, 2661.959 1041, 2661.261 1041 C 2660.564 1041, 2658.314 1040.100, 2656.261 1039 C 2654.209 1037.900, 2651.611 1037, 2650.487 1037 C 2649.364 1037, 2647.557 1036.382, 2646.473 1035.628 C 2645.388 1034.873, 2642.925 1033.929, 2641 1033.530 C 2639.075 1033.130, 2636.600 1032.241, 2635.500 1031.553 C 2634.400 1030.865, 2631.723 1029.972, 2629.551 1029.568 C 2627.379 1029.165, 2624.692 1028.197, 2623.579 1027.417 C 2622.466 1026.638, 2620.411 1026, 2619.013 1026 C 2617.614 1026, 2614.791 1025.100, 2612.739 1024 C 2610.686 1022.900, 2607.981 1022, 2606.726 1022 C 2605.472 1022, 2603.502 1021.339, 2602.349 1020.532 C 2601.197 1019.725, 2598.284 1018.762, 2595.877 1018.393 C 2593.470 1018.024, 2590.375 1017.156, 2588.999 1016.464 C 2587.623 1015.772, 2583.798 1014.877, 2580.499 1014.476 C 2577.200 1014.074, 2573.375 1013.188, 2572 1012.506 C 2570.625 1011.825, 2567.832 1010.965, 2565.792 1010.596 C 2563.753 1010.227, 2560.828 1009.270, 2559.292 1008.469 C 2557.757 1007.668, 2555.312 1007.010, 2553.859 1007.006 C 2552.407 1007.003, 2549.257 1006.110, 2546.859 1005.022 C 2544.428 1003.919, 2540.288 1003.031, 2537.500 1003.016 C 2534.750 1003, 2531.329 1002.376, 2529.897 1001.629 C 2528.465 1000.882, 2525.090 999.960, 2522.397 999.580 C 2519.704 999.199, 2516.150 998.286, 2514.500 997.550 C 2512.850 996.814, 2506.466 995.928, 2500.313 995.581 C 2494.161 995.234, 2487.538 994.287, 2485.595 993.475 C 2483.653 992.664, 2480.362 991.997, 2478.282 991.994 C 2476.202 991.990, 2473.150 991.255, 2471.500 990.359 C 2469.426 989.232, 2464.332 988.487, 2455 987.945 C 2447.575 987.513, 2440.059 986.712, 2438.298 986.164 C 2436.537 985.616, 2430.473 984.839, 2424.824 984.439 C 2419.174 984.038, 2413.086 983.098, 2411.295 982.350 C 2407.194 980.636, 2322.859 979.661, 2298.500 981.045 M 2340.500 1421.137 C 2347.100 1421.606, 2353.850 1422.483, 2355.500 1423.085 C 2357.150 1423.688, 2365.700 1424.422, 2374.500 1424.718 C 2383.300 1425.013, 2391.400 1425.730, 2392.500 1426.312 C 2393.600 1426.893, 2399.269 1427.689, 2405.098 1428.080 C 2411.008 1428.476, 2416.979 1429.440, 2418.598 1430.257 C 2420.194 1431.064, 2423.975 1431.972, 2427 1432.276 C 2430.025 1432.580, 2433.850 1433.539, 2435.500 1434.408 C 2437.150 1435.277, 2440.075 1435.993, 2442 1436 C 2443.925 1436.007, 2446.797 1436.689, 2448.382 1437.516 C 2449.968 1438.342, 2453.118 1439.293, 2455.382 1439.627 C 2457.647 1439.962, 2460.486 1440.851, 2461.691 1441.602 C 2462.896 1442.354, 2466.379 1443.262, 2469.432 1443.621 C 2472.484 1443.980, 2475.491 1444.887, 2476.113 1445.637 C 2476.736 1446.386, 2478.149 1447, 2479.254 1447 C 2480.360 1447, 2482.667 1447.845, 2484.382 1448.878 C 2486.097 1449.911, 2489.142 1451.048, 2491.150 1451.405 C 2493.157 1451.761, 2495.349 1452.716, 2496.022 1453.526 C 2496.695 1454.337, 2497.866 1455, 2498.626 1455 C 2499.386 1455, 2501.686 1455.900, 2503.739 1457 C 2505.791 1458.100, 2508.010 1459, 2508.669 1459 C 2510.231 1459, 2534.099 1471.066, 2535.821 1472.726 C 2536.548 1473.427, 2537.984 1474, 2539.012 1474 C 2540.041 1474, 2541.124 1474.391, 2541.420 1474.870 C 2541.715 1475.348, 2544.544 1477.036, 2547.706 1478.620 C 2553.667 1481.607, 2577.954 1497.525, 2586.232 1503.872 C 2588.835 1505.867, 2593.476 1509.300, 2596.547 1511.500 C 2605.291 1517.765, 2625.212 1535.130, 2634.500 1544.583 C 2638.952 1549.114, 2642.393 1552.832, 2658.021 1570 C 2660.275 1572.475, 2664.886 1578.100, 2668.269 1582.500 C 2671.652 1586.900, 2674.888 1591.007, 2675.460 1591.627 C 2676.032 1592.248, 2677.055 1593.598, 2677.734 1594.627 C 2678.413 1595.657, 2681.531 1600.100, 2684.663 1604.500 C 2687.796 1608.900, 2690.855 1613.400, 2691.463 1614.500 C 2692.070 1615.600, 2694.605 1619.650, 2697.097 1623.500 C 2699.588 1627.350, 2701.921 1631.286, 2702.281 1632.247 C 2702.641 1633.209, 2704.525 1636.480, 2706.468 1639.517 C 2708.410 1642.554, 2710 1645.377, 2710 1645.790 C 2710 1646.203, 2712.383 1651.257, 2715.296 1657.021 C 2718.209 1662.784, 2721.643 1669.975, 2722.928 1673 C 2724.212 1676.025, 2726.259 1680.750, 2727.476 1683.500 C 2728.692 1686.250, 2730.261 1690.075, 2730.961 1692 C 2731.662 1693.925, 2732.805 1696.850, 2733.502 1698.500 C 2734.199 1700.150, 2735.322 1703.300, 2735.997 1705.500 C 2736.672 1707.700, 2737.812 1710.850, 2738.531 1712.500 C 2739.250 1714.150, 2740.073 1716.625, 2740.360 1718 C 2740.647 1719.375, 2741.404 1722.525, 2742.042 1725 C 2742.680 1727.475, 2743.634 1731.300, 2744.163 1733.500 C 2744.691 1735.700, 2745.589 1738.850, 2746.157 1740.500 C 2746.726 1742.150, 2747.597 1745.300, 2748.093 1747.500 C 2748.589 1749.700, 2749.694 1754.425, 2750.548 1758 C 2751.403 1761.575, 2752.474 1767.875, 2752.928 1772 C 2753.382 1776.125, 2754.259 1780.767, 2754.877 1782.315 C 2755.494 1783.863, 2756 1787.322, 2756 1790 C 2756 1792.678, 2756.501 1796.137, 2757.113 1797.685 C 2758.629 1801.521, 2758.599 1881.355, 2757.080 1885.315 C 2756.486 1886.863, 2755.984 1892.038, 2755.965 1896.815 C 2755.942 1902.452, 2755.428 1906.377, 2754.500 1908 C 2753.714 1909.375, 2753.055 1911.956, 2753.035 1913.736 C 2753.016 1915.515, 2752.572 1918.890, 2752.050 1921.236 C 2751.527 1923.581, 2750.661 1928.200, 2750.125 1931.500 C 2749.063 1938.050, 2747.978 1942.578, 2745.455 1951 C 2744.548 1954.025, 2743.360 1958.750, 2742.815 1961.500 C 2742.269 1964.250, 2741.473 1966.950, 2741.046 1967.500 C 2740.618 1968.050, 2740.029 1969.625, 2739.736 1971 C 2739.240 1973.324, 2737.775 1977.742, 2735.922 1982.500 C 2735.493 1983.600, 2734.247 1987.200, 2733.152 1990.500 C 2727.502 2007.530, 2717.227 2029.289, 2703.169 2054 C 2699.571 2060.325, 2696.132 2066.400, 2695.527 2067.500 C 2692.222 2073.512, 2677.722 2094.562, 2675.551 2096.500 C 2674.934 2097.050, 2672.224 2100.425, 2669.527 2104 C 2659.307 2117.546, 2651.181 2126.868, 2639.888 2138 C 2627.095 2150.611, 2613.437 2163.376, 2609.395 2166.500 C 2607.971 2167.600, 2605.739 2169.400, 2604.434 2170.500 C 2603.129 2171.600, 2600.247 2173.824, 2598.030 2175.442 C 2595.814 2177.060, 2594 2178.747, 2594 2179.192 C 2594 2179.636, 2593.380 2180, 2592.622 2180 C 2591.865 2180, 2590.716 2180.637, 2590.070 2181.416 C 2589.423 2182.195, 2585.656 2185, 2581.697 2187.649 C 2577.739 2190.298, 2574.140 2193.036, 2573.700 2193.733 C 2573.260 2194.430, 2572.329 2195, 2571.631 2195 C 2570.933 2195, 2567.949 2196.800, 2565 2199 C 2562.051 2201.200, 2559.067 2203, 2558.369 2203 C 2557.671 2203, 2556.740 2203.572, 2556.300 2204.271 C 2555.860 2204.970, 2554.375 2206.092, 2553 2206.764 C 2550.241 2208.112, 2547.878 2209.510, 2543.790 2212.210 C 2542.300 2213.194, 2540.457 2214, 2539.694 2214 C 2538.930 2214, 2537.268 2214.900, 2536 2216 C 2534.732 2217.100, 2532.918 2218, 2531.969 2218 C 2531.021 2218, 2529.695 2218.663, 2529.022 2219.474 C 2528.349 2220.284, 2526.285 2221.231, 2524.435 2221.578 C 2522.585 2221.925, 2520.550 2222.837, 2519.913 2223.605 C 2519.276 2224.372, 2518.196 2225, 2517.512 2225 C 2516.829 2225, 2515.126 2225.900, 2513.727 2227 C 2512.329 2228.100, 2510.131 2229.002, 2508.842 2229.004 C 2507.554 2229.006, 2505.027 2229.906, 2503.226 2231.004 C 2501.425 2232.102, 2499.471 2233, 2498.884 2233 C 2498.296 2233, 2496.671 2233.900, 2495.273 2235 C 2493.874 2236.100, 2491.399 2237, 2489.773 2237 C 2488.146 2237, 2485.671 2237.900, 2484.273 2239 C 2482.874 2240.100, 2480.496 2241, 2478.988 2241 C 2477.479 2241, 2475.685 2241.675, 2475 2242.500 C 2474.263 2243.387, 2472.070 2244.003, 2469.628 2244.007 C 2467.192 2244.010, 2464.270 2244.828, 2462.500 2246 C 2460.850 2247.093, 2457.925 2247.993, 2456 2248 C 2454.075 2248.007, 2451.150 2248.907, 2449.500 2250 C 2447.302 2251.456, 2444.804 2251.989, 2440.158 2251.993 C 2435.337 2251.998, 2433.206 2252.480, 2431.273 2254 C 2429.602 2255.314, 2427.216 2256, 2424.315 2256 C 2421.887 2256, 2418.686 2256.616, 2417.200 2257.369 C 2415.544 2258.208, 2408.989 2259.009, 2400.248 2259.439 C 2392.409 2259.825, 2384.534 2260.600, 2382.748 2261.161 C 2380.962 2261.723, 2375.550 2262.546, 2370.722 2262.992 C 2365.894 2263.437, 2361.394 2264.248, 2360.722 2264.793 C 2360.050 2265.339, 2358.600 2266.006, 2357.500 2266.276 C 2353.396 2267.285, 2360.473 2266.996, 2376.500 2265.499 C 2397.518 2263.536, 2410.164 2261.591, 2429 2257.421 C 2517.506 2237.830, 2595.560 2191.769, 2655.557 2123.729 C 2716.175 2054.983, 2751.789 1971.170, 2759.973 1878 C 2761.284 1863.076, 2761.266 1824.819, 2759.942 1809.500 C 2751.306 1709.623, 2710.240 1619.559, 2641 1548.648 C 2604.873 1511.649, 2566.703 1484.130, 2521.233 1462.302 C 2468.954 1437.206, 2417.130 1424.138, 2357.500 1421.014 C 2334.989 1419.834, 2323.357 1419.919, 2340.500 1421.137 M 2303.500 1421.704 C 2274.965 1423.664, 2236.525 1431.507, 2205.500 1441.700 C 2107.243 1473.980, 2022.775 1542.487, 1971.481 1631.500 C 1964.663 1643.331, 1951.672 1669.005, 1952.224 1669.557 C 1952.436 1669.769, 1955.728 1663.768, 1959.540 1656.221 C 1963.352 1648.675, 1968.082 1639.800, 1970.052 1636.500 C 1972.021 1633.200, 1976.859 1625.100, 1980.804 1618.500 C 1993.957 1596.491, 2015.441 1569.740, 2038.629 1546.500 C 2047.409 1537.700, 2056.365 1528.925, 2058.531 1527 C 2065.002 1521.248, 2083.259 1506.858, 2086.750 1504.758 C 2088.537 1503.682, 2090.001 1502.509, 2090.002 1502.151 C 2090.003 1501.793, 2092.140 1500.161, 2094.752 1498.525 C 2097.363 1496.888, 2101.447 1494.076, 2103.827 1492.275 C 2106.206 1490.474, 2108.724 1489, 2109.422 1489 C 2110.119 1489, 2111.505 1488.100, 2112.500 1487 C 2113.495 1485.900, 2114.813 1485, 2115.428 1485 C 2116.043 1485, 2118.785 1483.537, 2121.523 1481.750 C 2124.260 1479.963, 2127.625 1477.929, 2129 1477.230 C 2130.375 1476.532, 2133.300 1474.866, 2135.500 1473.528 C 2137.700 1472.190, 2140.175 1470.816, 2141 1470.476 C 2141.825 1470.135, 2143.175 1469.432, 2144 1468.915 C 2145.540 1467.950, 2148.342 1466.616, 2160.500 1461.062 C 2164.350 1459.304, 2168.694 1457.220, 2170.154 1456.432 C 2171.614 1455.645, 2173.697 1455, 2174.782 1455 C 2175.867 1455, 2177.291 1454.354, 2177.947 1453.564 C 2178.602 1452.775, 2180.570 1451.830, 2182.319 1451.466 C 2184.069 1451.102, 2186.407 1450.232, 2187.515 1449.533 C 2188.623 1448.834, 2191.098 1447.934, 2193.015 1447.533 C 2194.932 1447.132, 2197.400 1446.241, 2198.500 1445.553 C 2199.600 1444.865, 2202.168 1443.992, 2204.208 1443.613 C 2206.247 1443.235, 2209.172 1442.270, 2210.708 1441.469 C 2212.243 1440.668, 2215.075 1439.994, 2217 1439.972 C 2218.925 1439.950, 2222.300 1439.063, 2224.500 1438 C 2226.700 1436.937, 2229.625 1436.037, 2231 1436 C 2232.375 1435.963, 2235.300 1435.063, 2237.500 1434 C 2239.903 1432.839, 2243.696 1432.050, 2247 1432.022 C 2250.025 1431.997, 2256.100 1431.087, 2260.500 1430 C 2264.900 1428.913, 2270.877 1428.018, 2273.782 1428.012 C 2276.687 1428.005, 2280.680 1427.325, 2282.654 1426.500 C 2285.051 1425.498, 2289.776 1424.986, 2296.872 1424.956 C 2302.717 1424.932, 2309.525 1424.462, 2312 1423.912 C 2314.475 1423.361, 2319.200 1422.542, 2322.500 1422.092 C 2328.089 1421.330, 2327.815 1421.277, 2318.500 1421.317 C 2313 1421.341, 2306.250 1421.515, 2303.500 1421.704 M 1916.625 1799.250 C 1915.444 1810.422, 1914.962 1826.947, 1915.947 1822.500 C 1916.975 1817.854, 1918.522 1793, 1917.783 1793 C 1917.509 1793, 1916.988 1795.813, 1916.625 1799.250 M 1915.610 1873 C 1915.917 1879.875, 1916.993 1890.900, 1918.001 1897.500 C 1919.667 1908.406, 1919.801 1908.816, 1919.470 1902 C 1918.829 1888.815, 1916.955 1868.630, 1915.988 1864.500 C 1915.325 1861.667, 1915.215 1864.145, 1915.610 1873 M 1920.044 1911.699 C 1920.020 1912.909, 1920.937 1918.759, 1922.082 1924.699 C 1936.012 1996.958, 1969.343 2065.126, 2018.552 2122 C 2064.178 2174.734, 2124.611 2216.500, 2191 2241.183 C 2223.958 2253.437, 2267.341 2263.193, 2299 2265.471 C 2303.675 2265.807, 2309.300 2266.318, 2311.500 2266.607 L 2315.500 2267.131 2312.500 2265.486 C 2310.850 2264.581, 2305.900 2263.447, 2301.500 2262.966 C 2297.100 2262.485, 2292.082 2261.666, 2290.349 2261.144 C 2288.616 2260.623, 2280.741 2259.881, 2272.849 2259.495 C 2264.334 2259.079, 2257.687 2258.287, 2256.500 2257.547 C 2255.400 2256.862, 2251.575 2256.056, 2248 2255.757 C 2244.425 2255.458, 2240.150 2254.493, 2238.500 2253.613 C 2236.850 2252.732, 2233.700 2251.994, 2231.500 2251.972 C 2229.300 2251.950, 2225.700 2251.063, 2223.500 2250 C 2221.300 2248.937, 2218.150 2248.050, 2216.500 2248.027 C 2214.850 2248.005, 2212.150 2247.093, 2210.500 2246 C 2208.850 2244.907, 2206.138 2244.010, 2204.473 2244.007 C 2202.807 2244.003, 2200.557 2243.382, 2199.473 2242.628 C 2198.388 2241.873, 2195.925 2240.916, 2194 2240.500 C 2192.075 2240.084, 2189.612 2239.127, 2188.527 2238.372 C 2187.443 2237.618, 2185.704 2237, 2184.664 2237 C 2183.623 2237, 2181.136 2236.173, 2179.136 2235.162 C 2175.347 2233.247, 2169.323 2230.489, 2162.500 2227.545 C 2160.300 2226.596, 2157.375 2225.236, 2156 2224.523 C 2141.652 2217.087, 2132.829 2212.389, 2129.500 2210.413 C 2127.300 2209.108, 2124.375 2207.471, 2123 2206.777 C 2121.625 2206.082, 2120.050 2205.162, 2119.500 2204.731 C 2118.950 2204.300, 2116.250 2202.528, 2113.500 2200.792 C 2101.398 2193.156, 2092.112 2186.840, 2090.980 2185.476 C 2090.306 2184.664, 2089.310 2184, 2088.766 2184 C 2087.924 2184, 2082.078 2179.474, 2075.850 2174 C 2072.972 2171.470, 2070.810 2169.680, 2064.982 2165 C 2051.956 2154.540, 2024.267 2126.777, 2014.706 2114.589 C 2011.293 2110.237, 2006.737 2104.612, 2004.581 2102.089 C 2002.426 2099.565, 1999.185 2095.250, 1997.379 2092.500 C 1995.573 2089.750, 1991.372 2083.675, 1988.043 2079 C 1984.715 2074.325, 1981.696 2069.825, 1981.333 2069 C 1980.971 2068.175, 1979.735 2066.156, 1978.587 2064.514 C 1977.439 2062.872, 1976.016 2060.622, 1975.424 2059.514 C 1974.832 2058.406, 1972.631 2054.350, 1970.532 2050.500 C 1962.528 2035.815, 1952.178 2015.093, 1950.180 2009.751 C 1949.035 2006.690, 1947.230 2002.232, 1946.170 1999.843 C 1939.752 1985.387, 1934.748 1970.416, 1929.509 1950 C 1928.592 1946.425, 1927.428 1941.925, 1926.924 1940 C 1924.894 1932.256, 1922.999 1922.726, 1922.985 1920.188 C 1922.966 1916.783, 1920.107 1908.532, 1920.044 1911.699" stroke="none" fill="#f9b8b5" fill-rule="evenodd"/><path d="M 2295.500 984.676 C 2212.989 989.878, 2151.723 1000.262, 2081 1021.031 C 1965.960 1054.814, 1852.647 1115.853, 1760.048 1193.922 C 1610.146 1320.300, 1506.115 1488.781, 1462.073 1676.500 C 1446.216 1744.087, 1438.757 1807.794, 1438.598 1877 C 1438.502 1918.695, 1440.209 1938.585, 1447.593 1981.809 C 1471.906 2124.143, 1546.921 2322.736, 1669.583 2569.500 C 1722.329 2675.610, 1771.790 2768.496, 1844.506 2898 C 1848.789 2905.628, 1894.005 2984.607, 1897.750 2991 C 1898.877 2992.925, 1911.385 3014.300, 1925.544 3038.500 C 1966.453 3108.417, 2030.456 3214.584, 2066.009 3271.500 C 2068.071 3274.800, 2079.426 3293.025, 2091.244 3312 C 2103.062 3330.975, 2118.560 3355.725, 2125.684 3367 C 2132.808 3378.275, 2141.756 3392.449, 2145.568 3398.497 C 2149.381 3404.545, 2154.750 3412.973, 2157.500 3417.225 C 2160.250 3421.478, 2164.579 3428.229, 2167.119 3432.229 C 2181.225 3454.431, 2223.524 3519.822, 2243.626 3550.500 C 2256.873 3570.716, 2332.407 3684.279, 2334.895 3687.719 C 2335.778 3688.939, 2337.183 3689.951, 2338.018 3689.969 C 2340.082 3690.011, 2426.883 3559.816, 2479.670 3477.500 C 2487.783 3464.850, 2497.628 3449.550, 2501.550 3443.500 C 2509.363 3431.445, 2535.197 3390.791, 2553.022 3362.500 C 2578.535 3322.005, 2582.973 3314.921, 2590.919 3302 C 2595.485 3294.575, 2600.688 3286.250, 2602.480 3283.500 C 2605.462 3278.926, 2609.733 3272.004, 2633.334 3233.500 C 2651.628 3203.656, 2675.824 3163.790, 2697.670 3127.500 C 2703.213 3118.293, 2731.589 3070.495, 2739.820 3056.500 C 2741.761 3053.200, 2745.243 3047.350, 2747.557 3043.500 C 2749.871 3039.650, 2754.231 3032.225, 2757.245 3027 C 2760.260 3021.775, 2766.911 3010.300, 2772.027 3001.500 C 2797.472 2957.725, 2819.730 2918.784, 2839.186 2884 C 2887.986 2796.753, 2923.941 2730.463, 2957.424 2666 C 2978.412 2625.592, 3033.870 2513.806, 3050.940 2477.500 C 3069.004 2439.081, 3072.741 2430.907, 3088.662 2395 C 3104.160 2360.047, 3104.724 2358.762, 3107.325 2352.500 C 3108.695 2349.200, 3111.922 2341.550, 3114.495 2335.500 C 3146.095 2261.201, 3175.273 2182.177, 3195.355 2116.500 C 3225.890 2016.637, 3239.599 1935.154, 3237.584 1865.500 C 3234.534 1760.048, 3216.589 1665.273, 3181.847 1571.129 C 3143.202 1466.409, 3081.661 1364.512, 3007.533 1282.507 C 2975.183 1246.718, 2920.683 1195.805, 2891.918 1174.500 C 2890.433 1173.400, 2883.207 1167.986, 2875.859 1162.468 C 2781.982 1091.971, 2671.810 1039.425, 2558.500 1011.107 C 2484.166 992.529, 2411.571 983.781, 2335.052 984.180 C 2316.048 984.279, 2298.250 984.502, 2295.500 984.676 M 2314 1421.133 C 2189.847 1427.845, 2074.872 1489.512, 1998.734 1590.225 C 1958.996 1642.788, 1929.689 1711.658, 1920.103 1775 C 1914.707 1810.655, 1913.262 1835.302, 1914.882 1864.083 C 1916.029 1884.470, 1919.564 1912.899, 1923.006 1929.410 C 1937.904 2000.884, 1970.355 2066.295, 2018.552 2122 C 2077.262 2189.855, 2158.620 2238.164, 2246.500 2257.351 C 2278.156 2264.262, 2304.058 2266.992, 2338 2266.992 C 2371.400 2266.993, 2398.754 2264.116, 2429 2257.421 C 2517.506 2237.830, 2595.560 2191.769, 2655.557 2123.729 C 2716.175 2054.983, 2751.789 1971.170, 2759.973 1878 C 2761.284 1863.076, 2761.266 1824.819, 2759.942 1809.500 C 2751.306 1709.623, 2710.240 1619.559, 2641 1548.648 C 2604.873 1511.649, 2566.703 1484.130, 2521.233 1462.302 C 2468.954 1437.206, 2417.130 1424.138, 2357.500 1421.014 C 2336.675 1419.923, 2336.379 1419.923, 2314 1421.133" stroke="none" fill="#e1262c" fill-rule="evenodd"/></svg>